<?xml version="1.0" standalone="no"?>
<!DOCTYPE svg PUBLIC "-//W3C//DTD SVG 20010904//EN"
 "http://www.w3.org/TR/2001/REC-SVG-20010904/DTD/svg10.dtd">
<svg version="1.0" xmlns="http://www.w3.org/2000/svg"
 width="100.000000pt" height="100.000000pt" viewBox="0 0 100.000000 100.000000"
 preserveAspectRatio="xMidYMid meet">
<metadata>
Created by potrace 1.14, written by Peter Selinger 2001-2017
</metadata>
<g transform="translate(0.000000,100.000000) scale(0.100000,-0.100000)"
fill="#000000" stroke="none">
<path d="M537 914 c-1 -1 -31 -5 -67 -9 -36 -4 -72 -8 -80 -10 -8 -2 -44 -6
-80 -10 -36 -4 -69 -9 -74 -12 -4 -3 -6 -47 -4 -98 4 -80 2 -94 -13 -103 -11
-7 -20 -29 -24 -59 -3 -26 -10 -61 -15 -77 -5 -16 -8 -31 -6 -33 1 -2 19 4 39
12 l37 15 0 -32 c0 -18 7 -67 15 -110 8 -42 17 -111 20 -155 14 -172 16 -175
143 -179 49 -1 109 2 133 6 24 5 61 11 82 14 21 3 61 16 87 27 52 22 63 43 63
119 1 33 -11 156 -18 191 -2 9 -6 38 -9 65 -3 27 -8 76 -12 109 -4 33 -8 75
-9 93 -1 22 -10 41 -27 55 -20 17 -28 35 -32 74 -11 95 -27 114 -99 111 -26
-1 -48 -3 -50 -4z"/>
</g>
</svg>
